# xmcd
#
# Track frame offsets:
# 150
# 18373
# 53933
# 73220
# 96560
# 120273
# 136345
# 162975
# 179423
# 197273
#
# Disc length: 2915 seconds
#
#
# Revision: 0
# Processed by: cddbd v1.5.2PL0 Copyright (c) Steve Scherf et al.
# Submitted via: Nero 7, 11, 10, 0 
#
DISCID=880b610a
DTITLE=Soapstone - Nature Will Provide
DYEAR=1995
DGENRE=Blues
TTITLE0=Cost Of Living
TTITLE1=Here Comes Your Time
TTITLE2=California Organic
TTITLE3=Teaser
TTITLE4=Bluebird
TTITLE5=Singer
TTITLE6=Starfish Bowl
TTITLE7=Giving The Blues
TTITLE8=Loosen Up
TTITLE9=Get Low, Get High
EXTD=
EXTT0=Cost Of Living
EXTT1=Here Comes Your Time
EXTT2=California Organic
EXTT3=Teaser
EXTT4=Bluebird
EXTT5=Singer
EXTT6=Starfish Bowl
EXTT7=Giving The Blues
EXTT8=Loosen Up
EXTT9=Get Low, Get High
PLAYORDER=
